<svg width="200" height="200" viewBox="0 0 200 200" fill="none" xmlns="http://www.w3.org/2000/svg">
  <!-- Leaf top center -->
  <path d="M100 20 C95 20 90 25 90 30 L90 45 C90 50 95 55 100 55 C105 55 110 50 110 45 L110 30 C110 25 105 20 100 20 Z" fill="#4CAF50"/>
  
  <!-- Leaf left -->
  <path d="M85 35 C80 30 72 30 68 35 L58 50 C54 55 55 62 60 66 C65 70 72 69 76 64 L86 49 C90 44 90 40 85 35 Z" fill="#4CAF50"/>
  
  <!-- Leaf right -->
  <path d="M115 35 C120 30 128 30 132 35 L142 50 C146 55 145 62 140 66 C135 70 128 69 124 64 L114 49 C110 44 110 40 115 35 Z" fill="#4CAF50"/>
  
  <!-- Person left - head -->
  <circle cx="55" cy="75" r="15" fill="#4CAF50"/>
  
  <!-- Person right - head -->
  <circle cx="145" cy="75" r="15" fill="#4CAF50"/>
  
  <!-- House roof / Arms -->
  <path d="M30 80 L70 110 L100 90 L130 110 L170 80 L170 160 C170 165 168 170 165 170 L160 170 L160 120 L155 120 L155 170 L150 170 C147 170 145 165 145 160 L145 110 L130 120 L100 100 L70 120 L55 110 L55 160 C55 165 53 170 50 170 L45 170 L45 120 L40 120 L40 170 L35 170 C32 170 30 165 30 160 Z" fill="#4CAF50"/>
  
  <!-- House windows -->
  <rect x="85" y="110" width="12" height="12" rx="2" fill="#000000"/>
  <rect x="103" y="110" width="12" height="12" rx="2" fill="#000000"/>
  <rect x="85" y="128" width="12" height="12" rx="2" fill="#000000"/>
  <rect x="103" y="128" width="12" height="12" rx="2" fill="#000000"/>
</svg>
