<?xml version="1.0" encoding="UTF-8"?>
<svg version="1.1" xmlns="http://www.w3.org/2000/svg" width="240" height="216">
<path d="M0 0 C2.39761404 1.22544717 3.9656108 2.3031552 6 4 C6.80179687 4.64453125 7.60359375 5.2890625 8.4296875 5.953125 C11.30376247 8.28169566 14.15245554 10.6390853 17 13 C18.83218143 14.50140678 20.66549791 16.00142962 22.5 17.5 C23.87285156 18.62341797 23.87285156 18.62341797 25.2734375 19.76953125 C27.02817784 21.20499935 28.78335155 22.63993796 30.5390625 24.07421875 C36.95281753 29.31567112 43.34837353 34.57891142 49.74072266 39.84643555 C53.65491932 43.07114546 57.57276747 46.29116366 61.5 49.5 C63.33345823 50.99984733 65.166775 52.4998676 67 54 C67.65000977 54.53125488 68.30001953 55.06250977 68.96972656 55.60986328 C94.75318876 76.69642841 94.75318876 76.69642841 95.375 82.5 C95 86 95 86 93.4375 87.9375 C90.02772056 89.42381411 87.58466584 89.87668458 84 89 C74.85912935 84.82878945 66.83009946 78.39914857 58.86767578 72.3527832 C56.29646423 70.49041938 53.64824687 68.7504062 51 67 C48.8626952 81.12411727 47.84527665 95.32637995 46.75 109.56176758 C46.50509557 112.72519619 46.25288719 115.88798222 46 119.05078125 C45.89365234 120.47769035 45.89365234 120.47769035 45.78515625 121.9334259 C44.55275387 137.22722523 44.55275387 137.22722523 41.25 143.125 C39 145 39 145 35.9375 145.5 C32.66916314 144.94368734 32.03555912 144.48452519 30 142 C27.29298414 133.43640912 27.47066994 124.42721817 27.18359375 115.5234375 C27.12241921 113.82668081 27.06039807 112.12995446 26.99757385 110.43325806 C26.83473368 105.98765555 26.68117261 101.54178623 26.53027344 97.09576416 C26.28743598 89.9740763 26.03234636 82.85283183 25.77354622 75.73170853 C25.68517613 73.25528111 25.60197491 70.77871985 25.51939392 68.30209351 C25.46548062 66.77479501 25.41141649 65.24750182 25.35717773 63.72021484 C25.33586288 63.03951431 25.31454803 62.35881378 25.29258728 61.65748596 C25.37114092 54.06652738 25.37114092 54.06652738 22.69995117 47.32250977 C22.15314697 46.94924561 21.60634277 46.57598145 21.04296875 46.19140625 C20.43050293 45.75787842 19.81803711 45.32435059 19.18701172 44.87768555 C18.52717285 44.44367432 17.86733398 44.00966309 17.1875 43.5625 C16.51477051 43.09948486 15.84204102 42.63646973 15.14892578 42.15942383 C13.77268298 41.21575628 12.39048074 40.28072083 11.00244141 39.35449219 C9.13729004 38.09286578 7.32149259 36.78468149 5.51171875 35.4453125 C4.47660156 34.70023438 3.44148438 33.95515625 2.375 33.1875 C1.45460938 32.52105469 0.53421875 31.85460937 -0.4140625 31.16796875 C-2.90013761 29.74237094 -2.90013761 29.74237094 -5.34765625 30.47265625 C-8.96749918 32.55713134 -12.39616598 34.84862035 -15.8125 37.25 C-16.52156494 37.74725586 -17.23062988 38.24451172 -17.96118164 38.75683594 C-19.35407155 39.735684 -20.74564183 40.71641316 -22.13574219 41.69921875 C-23.66624938 42.76712634 -25.22421925 43.79557105 -26.7890625 44.8125 C-27.49804688 45.286875 -28.20703125 45.76125 -28.9375 46.25 C-29.52402344 46.62640625 -30.11054687 47.0028125 -30.71484375 47.390625 C-34.00091353 51.50570327 -33.19691754 58.60222423 -33.35717773 63.72021484 C-33.39646896 64.82660057 -33.39646896 64.82660057 -33.43655396 65.95533752 C-33.49267598 67.54520648 -33.54717093 69.13513355 -33.6001873 70.7251091 C-33.68486003 73.24867741 -33.77501039 75.77199657 -33.86671448 78.2953186 C-34.12660933 85.46581026 -34.37892638 92.63654606 -34.62231445 99.80761719 C-34.77196722 104.20557268 -34.92981062 108.60317346 -35.09263802 113.00065994 C-35.15274342 114.66776294 -35.20975956 116.33498051 -35.26351738 118.00230026 C-35.958608 139.50835541 -35.958608 139.50835541 -39.38743591 143.69345093 C-41 145 -41 145 -43.9375 145.5 C-47 145 -47 145 -49.25 143.125 C-53.69281284 135.19140565 -53.55944358 125.13790707 -54.25390625 116.2578125 C-54.41550585 114.29327774 -54.57710882 112.32874326 -54.73891354 110.36422539 C-54.96174754 107.64187967 -55.17935094 104.91912641 -55.39685059 102.1963501 C-55.77999227 97.40538495 -56.1680468 92.614825 -56.56126404 87.82467651 C-56.76955733 85.28079074 -56.97447938 82.7366262 -57.17567444 80.19216919 C-57.26924728 79.04352386 -57.36282013 77.89487854 -57.45922852 76.71142578 C-57.53979996 75.70234161 -57.6203714 74.69325745 -57.7033844 73.65359497 C-57.96149217 71.34450034 -58.36697356 69.23097637 -59 67 C-59.54825439 67.38744385 -60.09650879 67.7748877 -60.66137695 68.17407227 C-90.95429265 89.55487637 -90.95429265 89.55487637 -99 89 C-101.4375 87.9375 -101.4375 87.9375 -103 86 C-103.75 82.875 -103.75 82.875 -103 79 C-98.16518863 71.66072956 -90.81976932 66.373717 -84 61 C-82.16354589 59.5038224 -80.33018857 58.0038354 -78.5 56.5 C-74.83333333 53.5 -71.16666667 50.5 -67.5 47.5 C-66.58476563 46.75105469 -65.66953125 46.00210938 -64.7265625 45.23046875 C-62.97182216 43.79500065 -61.21664845 42.36006204 -59.4609375 40.92578125 C-53.79659084 36.29676079 -48.14579188 31.65162274 -42.5 27 C-41.02605704 25.78643966 -39.552099 24.57289763 -38.078125 23.359375 C-35.69038441 21.39338804 -33.30488454 19.42485371 -30.921875 17.453125 C-25.9893238 13.38593366 -20.99737389 9.40699123 -15.9375 5.5 C-15.37643555 5.0659082 -14.81537109 4.63181641 -14.23730469 4.18457031 C-9.412256 0.48328527 -6.15031673 -0.79058892 0 0 Z " fill="#59B448" transform="translate(122,63)"/>
<path d="M0 0 C5.35224142 3.14481982 8.59463027 7.15498457 10.57421875 13.09375 C11.24730951 19.77288142 10.57053879 25.38889844 6.203125 30.7890625 C1.45489834 35.50312925 -3.82124127 36.93561313 -10.42578125 37.09375 C-17.18738906 36.33172753 -20.89613385 33.18554126 -25.11328125 28.03125 C-28.36640431 23.22902072 -27.84968929 17.66054238 -27.42578125 12.09375 C-25.67808373 6.64504596 -22.03299963 3.30833192 -17.42578125 0.09375 C-11.91953052 -1.74166691 -5.48828945 -2.05037545 0 0 Z " fill="#59B448" transform="translate(183.42578125,59.90625)"/>
<path d="M0 0 C4.31633181 3.18586395 7.91120739 6.79612218 9.625 11.9375 C10.13248917 18.15424229 10.3969833 23.70539413 6.625 28.9375 C2.54822595 33.63711453 -1.58048865 35.97923088 -7.7578125 36.87109375 C-13.43472093 37.01513471 -18.171795 35.8322563 -22.5234375 32.08984375 C-27.4531543 26.70739785 -28.75146928 22.54116892 -28.65625 15.31640625 C-28.03344994 10.04855578 -25.67118046 6.16887143 -21.875 2.5625 C-14.98485974 -1.91609117 -7.92509595 -2.49493761 0 0 Z " fill="#59B349" transform="translate(70.375,60.0625)"/>
<path d="M0 0 C3.81884766 0.78222656 3.81884766 0.78222656 5.44921875 2.7421875 C5.85785156 3.44601563 6.26648438 4.14984375 6.6875 4.875 C7.31205078 5.92300781 7.31205078 5.92300781 7.94921875 6.9921875 C10.37200525 11.62160111 10.46500942 15.89367018 10 21 C8.03974029 26.88077914 3.52026205 31.23986897 -2 34 C-1.67 34.66 -1.34 35.32 -1 36 C-0.90391392 37.83128771 -0.87017421 39.66619959 -0.875 41.5 C-0.87113281 42.96953125 -0.87113281 42.96953125 -0.8671875 44.46875 C-1 47 -1 47 -2 49 C-9.49299612 48.82463201 -15.8402369 47.45599884 -22 43 C-26.71087991 37.5543957 -28.23502582 32.25375199 -28.16796875 25.10546875 C-27.91077332 21.88155391 -27.02095907 19.06287722 -26 16 C-21.32800909 17.53093488 -17.97829995 20.10757395 -14.1875 23.125 C-13.59001953 23.59292969 -12.99253906 24.06085937 -12.37695312 24.54296875 C-10.91383208 25.69005565 -9.45633703 26.84431234 -8 28 C-8.33 27.01 -8.66 26.02 -9 25 C-9.92129041 17.93999685 -8.2009983 13.36687716 -4.5 7.4375 C-4.07074219 6.71498047 -3.64148438 5.99246094 -3.19921875 5.24804688 C-2.15028345 3.48816654 -1.07756792 1.74249575 0 0 Z " fill="#59B549" transform="translate(117,10)"/>
<path d="M0 0 C3.85633111 6.90925991 4.43184621 14.74989725 2.34375 22.40625 C-0.54119451 28.87250493 -5.62345326 33.2375801 -12.125 35.875 C-15.15538789 36.88316407 -17.78488708 37.30141684 -21 37 C-23.48194245 32.3463579 -23.9129497 27.14501315 -23 22 C-19.94320547 16.38147021 -15.4417899 12.10901857 -10.9375 7.625 C-10.21755859 6.88894531 -9.49761719 6.15289062 -8.75585938 5.39453125 C-8.06169922 4.69972656 -7.36753906 4.00492188 -6.65234375 3.2890625 C-6.02320068 2.65693848 -5.39405762 2.02481445 -4.74584961 1.37353516 C-3 0 -3 0 0 0 Z " fill="#59B44A" transform="translate(140,24)"/>
<path d="M0 0 C0.79792969 0.00386719 1.59585938 0.00773438 2.41796875 0.01171875 C3.21589844 0.00785156 4.01382813 0.00398437 4.8359375 0 C10.79136108 0.01011108 10.79136108 0.01011108 11.91796875 1.13671875 C12.04455097 3.79494532 12.10317089 6.41559299 12.10546875 9.07421875 C12.11771484 9.81607422 12.12996094 10.55792969 12.14257812 11.32226562 C12.14785353 13.26185504 12.03985777 15.20095585 11.91796875 17.13671875 C9.42586436 19.62882314 7.91436087 19.39687536 4.5078125 19.41015625 C3.47333984 19.39855469 3.47333984 19.39855469 2.41796875 19.38671875 C1.72832031 19.39445312 1.03867188 19.4021875 0.328125 19.41015625 C-4.82869832 19.39005168 -4.82869832 19.39005168 -7.08203125 17.13671875 C-7.25374028 14.40974652 -7.31448805 11.79765407 -7.26953125 9.07421875 C-7.26888672 8.32849609 -7.26824219 7.58277344 -7.26757812 6.81445312 C-7.2117321 -0.0173776 -6.78432296 0.01151838 0 0 Z " fill="#040607" transform="translate(105.08203125,148.86328125)"/>
<path d="M0 0 C1.03447266 0.01160156 1.03447266 0.01160156 2.08984375 0.0234375 C2.77949219 0.01570313 3.46914062 0.00796875 4.1796875 0 C9.33651082 0.02010457 9.33651082 0.02010457 11.58984375 2.2734375 C11.76155278 5.00040973 11.82230055 7.61250218 11.77734375 10.3359375 C11.77669922 11.08166016 11.77605469 11.82738281 11.77539062 12.59570312 C11.73012534 18.13315591 11.73012534 18.13315591 10.58984375 19.2734375 C7.74649327 19.37330725 4.93287212 19.41221631 2.08984375 19.3984375 C1.29191406 19.40230469 0.49398437 19.40617187 -0.328125 19.41015625 C-6.28354858 19.40004517 -6.28354858 19.40004517 -7.41015625 18.2734375 C-7.53673847 15.61521093 -7.59535839 12.99456326 -7.59765625 10.3359375 C-7.60990234 9.59408203 -7.62214844 8.85222656 -7.63476562 8.08789062 C-7.64004103 6.14830121 -7.53204527 4.2092004 -7.41015625 2.2734375 C-4.91805186 -0.21866689 -3.40654837 0.01328089 0 0 Z " fill="#040608" transform="translate(105.41015625,126.7265625)"/>
<path d="M0 0 C1.1127832 -0.01836914 1.1127832 -0.01836914 2.24804688 -0.03710938 C4.18763629 -0.04238478 6.1267371 0.06561098 8.0625 0.1875 C10.54538836 2.67038836 10.34833167 4.19936156 10.38476562 7.59765625 C10.38154297 8.28730469 10.37832031 8.97695312 10.375 9.6875 C10.39111328 10.37714844 10.40722656 11.06679687 10.42382812 11.77734375 C10.42578125 13.78125 10.42578125 13.78125 10.0625 17.1875 C6.36008718 19.65577522 4.4033889 19.42509026 0 19.375 C-1.87365234 19.36533203 -1.87365234 19.36533203 -3.78515625 19.35546875 C-6.9375 19.1875 -6.9375 19.1875 -8.9375 18.1875 C-8.96434312 15.37493719 -8.98426188 12.56262759 -9 9.75 C-9.00837891 8.94755859 -9.01675781 8.14511719 -9.02539062 7.31835938 C-9.0340143 5.27454779 -8.9897815 3.23066098 -8.9375 1.1875 C-6.89483571 -0.85516429 -2.80058566 0.00242056 0 0 Z " fill="#040607" transform="translate(128.9375,148.8125)"/>
<path d="M0 0 C1.24652344 -0.01417969 2.49304688 -0.02835937 3.77734375 -0.04296875 C7.0625 0.1875 7.0625 0.1875 10.0625 2.1875 C10.33918225 4.78176798 10.43545242 7.10013646 10.375 9.6875 C10.37983398 10.72197266 10.37983398 10.72197266 10.38476562 11.77734375 C10.32962592 16.92037408 10.32962592 16.92037408 8.0625 19.1875 C5.33552777 19.35920903 2.72343532 19.4199568 0 19.375 C-0.74572266 19.37435547 -1.49144531 19.37371094 -2.25976562 19.37304688 C-7.79721841 19.32778159 -7.79721841 19.32778159 -8.9375 18.1875 C-9.01075168 15.32482433 -9.02988205 12.486781 -9 9.625 C-8.99548828 8.81869141 -8.99097656 8.01238281 -8.98632812 7.18164062 C-8.97450518 5.18356244 -8.95656914 3.18552217 -8.9375 1.1875 C-5.98162889 -0.29043555 -3.28752355 0.01696349 0 0 Z " fill="#040607" transform="translate(128.9375,126.8125)"/>
</svg>
